<svg
  xmlns="http://www.w3.org/2000/svg"
  viewBox="0 0 24 24"
  fill="none"
  stroke="currentColor"
  stroke-width="1.5"
  stroke-linecap="round"
  stroke-linejoin="round"
>
  <!-- Repost context (secondary, expanded to typical Radix working area) -->
  <path d="M5 7h10a3.5 3.5 0 0 1 3.5 3.5V12" />
  <path d="M16 4l4 4-4 4" />
  <path d="M19 17H9a3.5 3.5 0 0 1-3.5-3.5V12" />
  <path d="M8 20l-4-4 4-4" />

  <!-- Heart (primary symbol; full-size silhouette) -->
  <path d="M12 20s-7-4.6-7-10.2C5 6.9 7 5 9.3 5c1.3 0 2.4.6 2.7 1.2.3-.6 1.4-1.2 2.7-1.2C17 5 19 6.9 19 9.8 19 15.4 12 20 12 20z" />
</svg>
