<svg
  xmlns="http://www.w3.org/2000/svg"
  viewBox="0 0 24 24"
  fill="none"
  stroke="currentColor"
  stroke-width="1.5"
  stroke-linecap="round"
  stroke-linejoin="round"
>
  <!-- Primary repost (expanded to typical Radix working area) -->
  <path d="M5 7h10a3.5 3.5 0 0 1 3.5 3.5V12" />
  <path d="M16 4l4 4-4 4" />
  <path d="M19 17H9a3.5 3.5 0 0 1-3.5-3.5V12" />
  <path d="M8 20l-4-4 4-4" />

  <!-- Secondary repost (offset layer via geometry only; still uses meaningful area) -->
  <path d="M7 9h8.2a2.8 2.8 0 0 1 2.8 2.8V13" />
  <path d="M15.4 7.6l3.2 3.2-3.2 3.2" />
  <path d="M17 15H8.8A2.8 2.8 0 0 1 6 12.2V11" />
  <path d="M8.6 16.4l-3.2-3.2 3.2-3.2" />
</svg>
