<?xml version="1.0" encoding="UTF-8"?>
<svg xmlns="http://www.w3.org/2000/svg" viewBox="0 0 512 512">
  <defs>
    <linearGradient id="g" x1="0" x2="1" y1="0" y2="1">
      <stop offset="0" stop-color="#3b82f6"/>
      <stop offset="1" stop-color="#8b5cf6"/>
    </linearGradient>
    <filter id="s" x="-20%" y="-20%" width="140%" height="140%">
      <feGaussianBlur in="SourceAlpha" stdDeviation="8"/>
      <feOffset dx="0" dy="4" result="o"/>
      <feMerge>
        <feMergeNode in="o"/>
        <feMergeNode in="SourceGraphic"/>
      </feMerge>
    </filter>
  </defs>
  <!-- Background -->
  <rect x="24" y="24" width="464" height="464" rx="96" fill="url(#g)"/>
  <!-- Paper plane (campaign/post) -->
  <g transform="translate(72,88)" fill="#ffffff" filter="url(#s)">
    <path d="M16 176 320 48c12-5 24 9 16 20L214 288c-5 7-16 6-20-2l-38-76-92-24c-10-3-11-17-2-22z" opacity="0.95"/>
    <path d="M156 210 320 48l-152 144  -12 18 0 0z" opacity="0.85"/>
  </g>
  <!-- Calendar badge (schedule) -->
  <g transform="translate(300,300)">
    <rect x="0" y="20" width="160" height="140" rx="20" fill="#0ea5e9"/>
    <rect x="0" y="20" width="160" height="60" rx="20" fill="#38bdf8"/>
    <circle cx="40" cy="20" r="10" fill="#0ea5e9"/>
    <circle cx="120" cy="20" r="10" fill="#0ea5e9"/>
    <path d="M52 116l26 26 46-58" fill="none" stroke="#ffffff" stroke-width="16" stroke-linecap="round" stroke-linejoin="round"/>
  </g>
</svg>

